<?xml version="1.0" encoding="UTF-8" standalone="no"?>
<svg
   xmlns:dc="http://purl.org/dc/elements/1.1/"
   xmlns:cc="http://creativecommons.org/ns#"
   xmlns:rdf="http://www.w3.org/1999/02/22-rdf-syntax-ns#"
   xmlns:svg="http://www.w3.org/2000/svg"
   xmlns="http://www.w3.org/2000/svg"
   viewBox="0 0 360 240"
   height="240"
   width="360"
   xml:space="preserve"
   id="svg2"
   version="1.1"><metadata
     id="metadata8"><rdf:RDF><cc:Work
         rdf:about=""><dc:format>image/svg+xml</dc:format><dc:type
           rdf:resource="http://purl.org/dc/dcmitype/StillImage" /></cc:Work></rdf:RDF></metadata><defs
     id="defs6"><clipPath
       id="clipPath18"
       clipPathUnits="userSpaceOnUse"><path
         id="path16"
         d="M 0,180 H 270 V 0 H 0 Z" /></clipPath></defs><g
     transform="matrix(1.3333333,0,0,-1.3333333,0,240)"
     id="g10"><g
       id="g12"><g
         clip-path="url(#clipPath18)"
         id="g14"><g
           transform="translate(223.417,136.8052)"
           id="g20"><path
             id="path22"
             style="fill:#58595b;fill-opacity:1;fill-rule:nonzero;stroke:none"
             d="m 0,0 c -14.156,0 -27.914,2.361 -41.672,5.111 12.97,8.255 27.133,13.368 42.063,13.368 7.472,0 18.872,-0.395 18.872,-7.865 C 19.263,1.967 6.298,0 0,0 m -56.999,3.932 c 1.179,0 2.354,-0.394 3.534,-0.787 -2.746,-2.357 -5.504,-4.715 -8.249,-7.073 z M -93.173,-29.09 c -1.179,1.179 -2.352,2.361 -3.531,3.145 h 5.5 c -0.785,-1.178 -1.179,-1.966 -1.969,-3.145 m 28.699,30.339 c -1.24,0.643 -0.709,4.132 1.179,7.793 1.897,3.663 4.443,6.113 5.69,5.471 1.242,-0.645 0.717,-4.133 -1.181,-7.798 -1.89,-3.666 -4.432,-6.113 -5.688,-5.466 m -56.503,22.619 c -29.063,1.342 -75.614,-9.485 -77.665,-53.864 -0.332,-7.068 2.598,-11.927 5.742,-12.072 1.582,0.319 2.872,2.622 3.035,6.151 0.255,5.502 -2.774,8.003 -3.699,13.56 5.734,30.429 42.126,42.908 72.367,41.509 l 0.059,0.017 c 18.086,-2.258 35.091,-7.174 52.732,-12.093 -5.492,-7.47 -12.183,-17.298 -19.656,-28.303 h -18.474 c -6.289,0 -6.289,-1.179 -6.289,-2.361 0,-1.178 13.161,-3.849 17.883,-9.351 -13.555,-20.337 -29.77,-49.725 -41.407,-65.961 l -0.07,-0.218 c 0,0 -9.524,-18.615 -9.711,-19.177 -0.137,-0.41 0.289,-0.544 0.289,-0.544 l 15.68,12.715 0.402,0.458 c 16.634,19.739 36.617,58.148 53.078,79.85 l 24.862,-0.129 c 1.96,0 5.504,0 5.504,2.357 0,1.967 -3.544,2.361 -5.504,2.361 h -20.908 l 0.395,0.395 c 7.468,8.252 15.727,16.117 25.164,22.407 15.323,-3.54 31.056,-6.29 47.168,-6.29 6.683,0 23.591,0.787 23.591,15.329 0,12.976 -16.121,12.584 -22.806,12.584 -17.686,0 -34.191,-6.687 -48.739,-16.516 -2.362,0.787 -4.332,1.181 -6.292,1.574 l 2.355,4.323 c 0,0 1.575,3.148 1.575,6.293 0,2.751 -1.575,6.289 -5.504,6.289 -0.785,0 -1.179,-1.18 -9.833,-13.758 -17.773,4.953 -35.555,10.125 -54.774,12.468 z M -59.713,5.083 c -0.016,-0.014 -0.088,0.013 -0.088,0.013 -1.621,0.226 -2.809,1.341 -2.643,2.484 0.155,1.15 1.609,1.893 3.224,1.667 l 1.47,-0.206 h 10e-4 C -58.326,7.582 -58.522,7.183 -59.25,5.859 -59.359,5.662 -59.711,5.085 -59.713,5.083" /></g></g></g></g></svg>